Coordinates
version=1
nRows=5
nColumns=63
inDegrees=yes

Units are S.I. units (second, meters, Newtons, ...)
If the header above contains a line with 'inDegrees', this indicates whether rotational values are in degrees (yes) or radians (no).

endheader
time	pelvis_tilt	pelvis_list	pelvis_rotation	pelvis_tx	pelvis_ty	pelvis_tz	hip_flexion_r	hip_adduction_r	hip_rotation_r	knee_angle_r	knee_angle_r_beta	ankle_angle_r	subtalar_angle_r	mtp_angle_r	hip_flexion_l	hip_adduction_l	hip_rotation_l	knee_angle_l	knee_angle_l_beta	ankle_angle_l	subtalar_angle_l	mtp_angle_l	L5_S1_Flex_Ext	L5_S1_Lat_Bending	L5_S1_axial_rotation	L4_L5_Flex_Ext	L4_L5_Lat_Bending	L4_L5_axial_rotation	L3_L4_Flex_Ext	L3_L4_Lat_Bending	L3_L4_axial_rotation	L2_L3_Flex_Ext	L2_L3_Lat_Bending	L2_L3_axial_rotation	L1_L2_Flex_Ext	L1_L2_Lat_Bending	L1_L2_axial_rotation	L1_T12_Flex_Ext	L1_T12_Lat_Bending	L1_T12_axial_rotation	Abs_r3	Abs_r2	Abs_r1	Abs_t1	Abs_t2	neck_flexion	neck_bending	neck_rotation	arm_flex_r	arm_add_r	arm_rot_r	elbow_flex_r	pro_sup_r	wrist_flex_r	wrist_dev_r	arm_flex_l	arm_add_l	arm_rot_l	elbow_flex_l	pro_sup_l	wrist_flex_l	wrist_dev_l
      3.75000000	    -53.81350978	     -6.29910482	      3.36078016	     -0.26160136	      1.06312624	     -0.04141127	     86.70644212	     -6.07246169	    -11.88768510	     41.84821939	      0.73038921	     -2.38099528	     -0.08697600	      0.00000000	    124.75102923	     -0.56731204	      7.41790069	    113.80159234	      1.98621248	     12.94833753	      1.18817642	      0.00000000	     -0.09173299	      1.02199379	     -0.25834079	     -0.17035733	      1.35925174	     -0.27448709	     -0.15070813	      2.48487570	     -0.27448709	     -0.10484163	      2.48487570	     -0.22604819	     -0.08518325	      2.08404973	     -0.20990189	     -0.05241623	      1.58306838	     -0.19375559	     -0.65523956	     11.56099813	     -1.43681395	      0.00000000	      0.00000000	     -0.00000000	      0.00000000	      0.00000000	     60.96398695	    -13.51867991	     16.30582589	     39.00751028	     22.87432612	      0.00000000	      5.00015248	     59.07995551	     -7.79587167	      9.42014319	     39.45316464	     21.99950099	      0.00000000	      5.00015248
      3.75800000	    -53.79094704	     -5.96826356	      3.49033593	     -0.26118304	      1.06302336	     -0.04173797	     85.86846454	     -6.20917704	    -11.74901558	     41.57358323	      0.72559591	     -2.62508530	      0.23506845	      0.00000000	    125.63985303	     -0.51287751	      6.78453200	    113.98724583	      1.98945274	     13.39836962	      1.46192541	      0.00000000	     -0.09046959	      0.97473380	     -0.27260582	     -0.16801108	      1.29639596	     -0.28964368	     -0.14863249	      2.36996777	     -0.28964368	     -0.10339769	      2.36996777	     -0.23853009	     -0.08401006	      1.98767717	     -0.22149223	     -0.05169432	      1.50986266	     -0.20445436	     -0.64621523	     11.02638374	     -1.51615178	      0.00000000	      0.00000000	     -0.00000000	      0.00000000	      0.00000000	     60.68220887	    -13.46662583	     16.01273941	     39.13821325	     22.83381119	      0.00000000	      5.00014940	     59.09307996	     -7.80867676	      9.59067635	     39.49080212	     22.03627426	      0.00000000	      5.00014940
      3.76700000	    -53.77206133	     -5.80028576	      3.57392680	     -0.26082462	      1.06295661	     -0.04208927	     85.11841275	     -6.27809258	    -11.67432387	     41.53084547	      0.72484999	     -2.77798260	      0.37591327	      0.00000000	    126.54074545	     -0.47502947	      6.33887431	    114.09570847	      1.99134578	     13.66282604	      1.56131612	      0.00000000	     -0.08958925	      0.94953247	     -0.28303233	     -0.16637619	      1.26287819	     -0.30072185	     -0.14718617	      2.30869325	     -0.30072185	     -0.10239155	      2.30869325	     -0.24765329	     -0.08319257	      1.93628662	     -0.22996377	     -0.05119130	      1.47082580	     -0.21227425	     -0.63992703	     10.74130123	     -1.57414091	      0.00000000	      0.00000000	     -0.00000000	      0.00000000	      0.00000000	     60.55654570	    -13.49121865	     15.93042161	     39.16738775	     22.85041796	      0.00000000	      5.00014851	     59.04021354	     -7.75554206	      9.65155377	     39.52064817	     22.07512313	      0.00000000	      5.00014851
      3.77500000	    -53.78646325	     -5.66166714	      3.62791819	     -0.26058618	      1.06309276	     -0.04240038	     84.44098603	     -6.32263797	    -11.62118940	     41.57124517	      0.72555510	     -2.88994947	      0.52545405	      0.00000000	    127.38214243	     -0.49463409	      5.89760040	    113.99543905	      1.98959574	     13.89873033	      1.67273377	      0.00000000	     -0.08934387	      0.92883510	     -0.28812739	     -0.16592050	      1.23535068	     -0.30613535	     -0.14678305	      2.25836966	     -0.30613535	     -0.10211111	      2.25836966	     -0.25211147	     -0.08296472	      1.89408054	     -0.23410350	     -0.05105109	      1.43876557	     -0.21609554	     -0.63817434	     10.50716842	     -1.60247811	      0.00000000	      0.00000000	     -0.00000000	      0.00000000	      0.00000000	     60.44035405	    -13.51030719	     15.85812836	     39.19834388	     22.87429750	      0.00000000	      5.00014776	     59.03387645	     -7.70955665	      9.70205776	     39.57406998	     22.11846209	      0.00000000	      5.00014776
      3.78300000	    -53.86518875	     -4.75457588	      3.90999628	     -0.26052606	      1.06346076	     -0.04244661	     84.04449701	     -6.92771794	    -10.99127305	     41.95466902	      0.73224711	     -1.97833039	      2.75232336	      0.00000000	    127.87924558	     -0.78599162	      4.91903232	    113.52761378	      1.98143065	     15.05268067	      3.47402384	      0.00000000	     -0.09035271	      0.80202999	     -0.32971409	     -0.16779402	      1.06669989	     -0.35032123	     -0.14844047	      1.95005572	     -0.35032123	     -0.10326411	      1.95005572	     -0.28849983	     -0.08390153	      1.63549956	     -0.26789270	     -0.05162754	      1.24234446	     -0.24728557	     -0.64538038	      9.07272368	     -1.83377088	      0.00000000	      0.00000000	     -0.00000000	      0.00000000	      0.00000000	     59.85041729	    -13.05479817	     14.17848748	     39.61743446	     22.57640014	      0.00000000	      5.00013951	     59.24677208	     -8.00825114	     10.59415682	     39.56102754	     22.19752961	      0.00000000	      5.00013951
